<?xml version="1.0" encoding="UTF-8"?>
<!-- Generator: Adobe Illustrator 28.0.0, SVG Export Plug-In . SVG Version: 6.00 Build 0)  -->
<svg xmlns="http://www.w3.org/2000/svg" xmlns:xlink="http://www.w3.org/1999/xlink" version="1.1" id="Layer_1" x="0px" y="0px" viewBox="0 0 233 80" style="enable-background:new 0 0 233 80;" xml:space="preserve">
<style type="text/css">
	.st0{fill:#E46225;}
	.st1{fill:#262261;}
</style>
<g>
	<path class="st0" d="M36.51,67.55c-17.32-8.9-25.29-26.4-16.4-43.72c3.84-7.48,4.99-6.23,12.16-13.19   c-5.62,1.94-11.78,6.4-14.75,12.18C8.14,41.07,14.71,61,32.78,70.28c13.01,6.68,28.24,4.49,38.79-4.35   C61.35,72.42,48.06,73.47,36.51,67.55"></path>
	<path class="st1" d="M25.33,30.87c3.95-14.49,18.41-23.29,32.91-20.44c-0.65-0.23-1.31-0.43-1.98-0.61   c-15.16-4.13-30.8,4.81-34.93,19.96c-4.13,15.16,4.81,30.8,19.97,34.93c0.67,0.18,1.35,0.34,2.02,0.47   C29.37,60.28,21.38,45.36,25.33,30.87"></path>
	<path class="st1" d="M133.17,64.27l-1.68,2.58v1.71l-0.13,0.13h-0.21l-0.13-0.13v-1.72l-1.68-2.57l0.07-0.13h0.26   c0.15,0,0.19,0.01,0.24,0.12l1.34,2.11l1.36-2.11c0.06-0.11,0.09-0.12,0.24-0.12h0.24L133.17,64.27"></path>
	<path class="st1" d="M134.98,65.31c0.89,0,1.42,0.45,1.42,1.18v1.13c0,0.73-0.53,1.17-1.42,1.17c-0.87,0-1.4-0.45-1.4-1.17v-1.13   C133.58,65.76,134.11,65.31,134.98,65.31 M134.98,65.7c-0.59,0-0.97,0.29-0.97,0.79v1.13c0,0.49,0.39,0.78,0.97,0.78   c0.6,0,0.98-0.3,0.98-0.78v-1.13C135.97,65.99,135.59,65.7,134.98,65.7"></path>
	<path class="st1" d="M140.42,65.52v2.71c0,0.2-0.05,0.27-0.24,0.35c-0.25,0.1-0.62,0.21-1.2,0.21c-0.88,0-1.27-0.46-1.27-1.25   v-2.02l0.11-0.11h0.2l0.11,0.11v2c0,0.58,0.27,0.88,0.9,0.88c0.36,0,0.64-0.07,0.83-0.14c0.1-0.04,0.12-0.09,0.12-0.18v-2.56   l0.11-0.11h0.21L140.42,65.52"></path>
	<path class="st1" d="M143.44,65.31l0.12,0.11v0.17l-0.12,0.11h-0.22c-0.36,0-0.65,0.07-0.84,0.14c-0.1,0.05-0.11,0.1-0.11,0.17   v2.57l-0.11,0.12h-0.21l-0.12-0.12v-2.72c0-0.2,0.05-0.28,0.25-0.36c0.24-0.09,0.6-0.18,1.16-0.2"></path>
	<path class="st1" d="M147.87,65.31c0.47,0,0.85,0.1,1.08,0.19c0.2,0.09,0.24,0.14,0.24,0.35v3.04c0,0.83-0.38,1.38-1.35,1.38   c-0.69,0-1.05-0.28-1.27-0.69l0.04-0.19l0.14-0.07l0.19,0.04c0.17,0.31,0.41,0.51,0.88,0.51c0.66,0,0.94-0.37,0.94-0.97v-0.4   c-0.17,0.06-0.55,0.19-1.02,0.19c-0.87,0-1.27-0.47-1.27-1.25v-0.84C146.48,65.77,146.92,65.31,147.87,65.31 M147.89,65.71   c-0.66,0-0.97,0.31-0.97,0.92v0.82c0,0.56,0.28,0.86,0.88,0.86c0.46,0,0.8-0.13,0.96-0.19v-2.14c0-0.1-0.01-0.12-0.12-0.16   C148.47,65.77,148.21,65.71,147.89,65.71"></path>
	<path class="st1" d="M151.83,65.31c1.02,0,1.28,0.58,1.28,1.27v1.68c0,0.23-0.05,0.29-0.23,0.37c-0.24,0.1-0.58,0.17-1.06,0.17   c-1.11,0-1.38-0.35-1.38-0.99c0-0.74,0.4-0.99,1.41-0.99c0.38,0,0.73,0.05,0.84,0.06v-0.29c0-0.5-0.17-0.88-0.87-0.88   c-0.45,0-0.73,0.17-0.9,0.46l-0.16,0.05l-0.15-0.06l-0.06-0.17C150.77,65.56,151.19,65.31,151.83,65.31 M151.8,67.16   c-0.69,0-0.93,0.19-0.93,0.63c0,0.4,0.16,0.64,0.91,0.64c0.36,0,0.6-0.04,0.78-0.1c0.09-0.04,0.12-0.06,0.12-0.18v-0.93   C152.56,67.2,152.17,67.16,151.8,67.16"></path>
	<path class="st1" d="M155.22,64.75v0.66h0.93l0.12,0.11v0.17l-0.12,0.12h-0.93v1.67c0,0.76,0.22,0.91,0.92,0.91l0.11,0.12v0.17   l-0.11,0.11c-0.99,0.02-1.34-0.27-1.34-1.31V65.8h-0.61l-0.11-0.12v-0.17l0.11-0.11h0.61v-0.66l0.11-0.12h0.2L155.22,64.75"></path>
	<path class="st1" d="M158.65,65.31c0.96,0,1.42,0.56,1.42,1.33v0.35c0,0.11-0.05,0.18-0.19,0.18h-2.22v0.37   c0,0.54,0.33,0.88,0.96,0.88c0.53,0,0.83-0.21,1.01-0.53l0.18-0.05l0.14,0.07L160,68.1c-0.23,0.4-0.64,0.69-1.38,0.69   c-0.96,0-1.39-0.52-1.39-1.29v-0.83C157.24,65.81,157.72,65.31,158.65,65.31 M158.65,65.68c-0.65,0-0.99,0.36-0.99,0.93v0.22h1.98   v-0.22C159.65,66.04,159.31,65.68,158.65,65.68"></path>
	<path class="st1" d="M165.41,65.54l-0.95,3.08l-0.15,0.11h-0.14l-0.16-0.11l-0.66-2.09c-0.07-0.23-0.1-0.46-0.13-0.54h-0.02   c-0.02,0.08-0.07,0.31-0.12,0.54l-0.66,2.09l-0.15,0.11h-0.14l-0.15-0.11l-0.94-3.08c-0.03-0.1-0.02-0.13,0.1-0.13h0.15   c0.14,0,0.18,0.01,0.2,0.11l0.58,1.99c0.07,0.24,0.11,0.57,0.14,0.67h0.02c0.03-0.11,0.09-0.43,0.16-0.68l0.61-1.91   c0.03-0.1,0.05-0.12,0.19-0.12h0.1c0.13,0,0.15,0.02,0.18,0.12l0.61,1.89c0.08,0.27,0.13,0.58,0.16,0.7h0.02   c0.03-0.11,0.07-0.41,0.15-0.68l0.58-1.98c0.02-0.1,0.06-0.11,0.21-0.11h0.13C165.44,65.41,165.45,65.43,165.41,65.54"></path>
	<path class="st1" d="M167.74,65.31c1.02,0,1.28,0.58,1.28,1.27v1.68c0,0.23-0.05,0.29-0.23,0.37c-0.24,0.1-0.58,0.17-1.07,0.17   c-1.11,0-1.38-0.35-1.38-0.99c0-0.74,0.41-0.99,1.41-0.99c0.37,0,0.72,0.05,0.84,0.06v-0.29c0-0.5-0.17-0.88-0.87-0.88   c-0.45,0-0.73,0.17-0.89,0.46l-0.16,0.05l-0.15-0.06l-0.07-0.17C166.67,65.56,167.09,65.31,167.74,65.31 M167.71,67.16   c-0.69,0-0.92,0.19-0.92,0.63c0,0.4,0.16,0.64,0.91,0.64c0.36,0,0.59-0.04,0.78-0.1c0.1-0.04,0.12-0.06,0.12-0.18v-0.93   C168.46,67.2,168.08,67.16,167.71,67.16"></path>
	<path class="st1" d="M173.09,65.52v3.38c0,0.83-0.39,1.38-1.36,1.38c-0.69,0-1.06-0.28-1.28-0.69l0.04-0.19l0.14-0.08l0.19,0.05   c0.16,0.31,0.41,0.51,0.89,0.51c0.65,0,0.93-0.37,0.93-0.98v-0.38c-0.21,0.06-0.52,0.17-1,0.17c-0.88,0-1.27-0.46-1.27-1.25v-1.94   l0.12-0.11h0.2l0.12,0.11v1.92c0,0.58,0.27,0.88,0.9,0.88c0.44,0,0.75-0.11,0.95-0.17v-2.62l0.12-0.11h0.21L173.09,65.52"></path>
	<path class="st1" d="M177.27,64.75v0.66h0.93l0.12,0.11v0.17l-0.12,0.12h-0.93v1.67c0,0.76,0.22,0.91,0.91,0.91l0.12,0.12v0.17   l-0.12,0.11c-0.99,0.02-1.34-0.27-1.34-1.31V65.8h-0.61l-0.11-0.12v-0.17l0.11-0.11h0.61v-0.66l0.12-0.12h0.2L177.27,64.75"></path>
	<path class="st1" d="M180.7,65.31c0.88,0,1.42,0.45,1.42,1.18v1.13c0,0.73-0.54,1.17-1.42,1.17c-0.87,0-1.4-0.45-1.4-1.17v-1.13   C179.3,65.76,179.83,65.31,180.7,65.31 M180.7,65.7c-0.59,0-0.97,0.29-0.97,0.79v1.13c0,0.49,0.39,0.78,0.97,0.78   c0.6,0,0.98-0.3,0.98-0.78v-1.13C181.68,65.99,181.31,65.7,180.7,65.7"></path>
	<path class="st1" d="M186.19,64.75v0.66h0.93l0.11,0.11v0.17l-0.11,0.12h-0.93v1.67c0,0.76,0.23,0.91,0.92,0.91l0.12,0.12v0.17   l-0.12,0.11c-0.99,0.02-1.35-0.27-1.35-1.31V65.8h-0.61l-0.12-0.12v-0.17l0.12-0.11h0.61v-0.66l0.12-0.12h0.2L186.19,64.75"></path>
	<path class="st1" d="M188.76,64.07v1.42c0.2-0.09,0.56-0.18,1.01-0.18c0.87,0,1.27,0.46,1.27,1.25v2.02l-0.11,0.11h-0.21   l-0.11-0.11v-2.01c0-0.56-0.28-0.87-0.89-0.87c-0.4,0-0.75,0.08-0.95,0.19v2.69l-0.12,0.11h-0.2l-0.12-0.11v-4.51l0.12-0.11h0.2   L188.76,64.07"></path>
	<path class="st1" d="M193.74,65.31c0.96,0,1.43,0.56,1.43,1.33v0.35c0,0.11-0.05,0.18-0.19,0.18h-2.22v0.37   c0,0.54,0.33,0.88,0.96,0.88c0.52,0,0.82-0.21,1-0.53l0.19-0.05l0.13,0.07l0.05,0.18c-0.22,0.4-0.63,0.69-1.37,0.69   c-0.96,0-1.39-0.52-1.39-1.29v-0.83C192.33,65.81,192.81,65.31,193.74,65.31 M193.74,65.68c-0.65,0-0.99,0.36-0.99,0.93v0.22h1.98   v-0.22C194.74,66.04,194.4,65.68,193.74,65.68"></path>
	<path class="st1" d="M202.52,65.54l-0.95,3.08l-0.15,0.11h-0.14l-0.16-0.11l-0.66-2.09c-0.07-0.23-0.1-0.46-0.13-0.54h-0.02   c-0.02,0.08-0.06,0.31-0.13,0.54l-0.66,2.09l-0.15,0.11h-0.14l-0.15-0.11l-0.94-3.08c-0.03-0.1-0.02-0.13,0.09-0.13h0.15   c0.13,0,0.18,0.01,0.2,0.11l0.59,1.99c0.06,0.24,0.1,0.57,0.14,0.67h0.02c0.03-0.11,0.09-0.43,0.16-0.68l0.61-1.91   c0.02-0.1,0.05-0.12,0.19-0.12h0.1c0.13,0,0.15,0.02,0.19,0.12l0.61,1.89c0.09,0.27,0.13,0.58,0.17,0.7h0.02   c0.03-0.11,0.07-0.41,0.15-0.68l0.57-1.98c0.03-0.1,0.07-0.11,0.21-0.11h0.13C202.54,65.41,202.55,65.43,202.52,65.54"></path>
	<path class="st1" d="M204.95,65.31c0.88,0,1.41,0.45,1.41,1.18v1.13c0,0.73-0.53,1.17-1.41,1.17c-0.87,0-1.41-0.45-1.41-1.17v-1.13   C203.54,65.76,204.08,65.31,204.95,65.31 M204.95,65.7c-0.59,0-0.97,0.29-0.97,0.79v1.13c0,0.49,0.38,0.78,0.97,0.78   c0.6,0,0.98-0.3,0.98-0.78v-1.13C205.92,65.99,205.55,65.7,204.95,65.7"></path>
	<path class="st1" d="M209.28,65.31l0.12,0.11v0.17l-0.12,0.11h-0.21c-0.37,0-0.65,0.07-0.85,0.14l-0.11,0.17v2.57L208,68.7h-0.21   l-0.12-0.12v-2.72c0-0.2,0.05-0.28,0.24-0.36c0.24-0.09,0.6-0.18,1.16-0.2"></path>
	<polyline class="st1" points="210.82,68.7 210.62,68.7 210.51,68.58 210.51,64.07 210.62,63.96 210.82,63.96 210.94,64.07    210.94,68.58 210.82,68.7  "></polyline>
	<path class="st1" d="M213.56,65.31c0.48,0,0.85,0.13,1.02,0.19v-1.42l0.12-0.11h0.2l0.11,0.11v4.18c0,0.21-0.05,0.26-0.25,0.35   c-0.25,0.1-0.6,0.19-1.11,0.19c-0.92,0-1.35-0.45-1.35-1.28v-0.92C212.3,65.78,212.71,65.31,213.56,65.31 M213.64,65.71   c-0.63,0-0.91,0.32-0.91,0.9v0.9c0,0.59,0.32,0.9,0.95,0.9c0.33,0,0.59-0.06,0.77-0.12c0.11-0.04,0.12-0.07,0.12-0.17V65.9   C214.43,65.84,214.09,65.71,213.64,65.71"></path>
	<path class="st1" d="M216.88,68.44v0.04c0,0.19-0.05,0.26-0.25,0.26h-0.04c-0.19,0-0.26-0.06-0.26-0.26v-0.04   c0-0.2,0.06-0.26,0.26-0.26h0.04C216.83,68.19,216.88,68.24,216.88,68.44"></path>
	<path class="st1" d="M86.58,59.54V39.48h-7.23V37.7c0-0.71,0.25-1.32,0.74-1.81c0.5-0.49,1.1-0.74,1.81-0.74h16.88v4.32h-7.17   v20.07 M159.09,35.15h2.56c0.66,0,1.23,0.22,1.7,0.67c0.47,0.46,0.71,1,0.71,1.67v22.05h-4.96V35.15z M154.27,53.73h3.55   c-0.52,1.99-1.51,3.5-2.98,4.54c-1.46,1.09-3.31,1.63-5.53,1.63c-2.7,0-4.8-0.88-6.31-2.62c-1.52-1.7-2.27-4.14-2.27-7.31   c0-3.03,0.73-5.39,2.2-7.09c1.51-1.75,3.62-2.63,6.31-2.63c2.84,0,5.04,0.85,6.6,2.55c1.51,1.75,2.27,4.18,2.27,7.31v0.78   c0,0.23-0.02,0.4-0.07,0.5h-12.27c0.05,1.46,0.4,2.55,1.07,3.26c0.61,0.76,1.53,1.14,2.76,1.14c0.81,0,1.49-0.16,2.06-0.5   c0.14-0.05,0.27-0.13,0.39-0.25c0.12-0.12,0.25-0.25,0.39-0.39c0.04-0.14,0.23-0.33,0.53-0.56   C153.27,53.85,153.71,53.73,154.27,53.73 M145.76,48.2H153c-0.1-1.28-0.43-2.22-1-2.84c-0.61-0.66-1.49-0.99-2.62-0.99   c-1.04,0-1.9,0.33-2.55,0.99C146.16,46.03,145.81,46.97,145.76,48.2 M133.63,59.54h-5.04L122,40.68h5.25L131,53.94l3.34-11.56   c0.38-1.13,1.14-1.7,2.27-1.7h3.68L133.63,59.54z M116.68,50.04c-0.66,0.34-1.59,0.64-2.77,0.92c-1.09,0.24-1.63,0.36-1.63,0.36   c-0.85,0.23-1.47,0.54-1.85,0.92c-0.33,0.52-0.5,1.04-0.5,1.56c0,0.71,0.21,1.28,0.64,1.7c0.43,0.38,1.04,0.57,1.85,0.57   c1.32,0,2.36-0.38,3.12-1.14c0.76-0.76,1.13-1.79,1.13-3.12V50.04z M117.81,58.77c-0.99,0.52-2.04,0.84-3.15,0.96   c-1.11,0.11-2.09,0.17-2.95,0.17c-1.7,0-3.19-0.46-4.47-1.38c-1.28-0.92-1.91-2.44-1.91-4.58c0-1.98,0.58-3.4,1.74-4.25   c1.16-0.85,2.64-1.42,4.43-1.7c0.24,0,0.52-0.03,0.85-0.11c0.33-0.06,0.71-0.13,1.13-0.17c2.08-0.28,3.12-0.89,3.12-1.85   c0-0.71-0.37-1.17-1.1-1.38c-0.73-0.21-1.41-0.32-2.02-0.32c-0.66,0-1.25,0.1-1.78,0.28c-0.52,0.19-0.89,0.54-1.13,1.06h-4.75   c0.19-1.47,0.85-2.67,1.99-3.62c1.27-1.08,3.1-1.63,5.46-1.63c2.65,0,4.63,0.45,5.95,1.35c1.38,0.94,2.06,2.27,2.06,3.97v6.46   c0,1.89-0.34,3.37-1.03,4.43C119.57,57.53,118.75,58.29,117.81,58.77 M94.62,59.54V50.4c0-1.84,0.27-3.39,0.82-4.64   c0.55-1.25,1.29-2.26,2.24-3.01c0.89-0.71,1.95-1.23,3.15-1.56c1.2-0.33,2.44-0.5,3.72-0.5h0.71v5.04h-1.63   c-1.37,0-2.39,0.33-3.05,0.99c-0.66,0.66-0.99,1.7-0.99,3.12v9.71H94.62z"></path>
	<path class="st0" d="M172.56,49.04c-1.09,0-1.45-0.58-1.45-1.9c0-1.32,0.36-1.9,1.45-1.9h0.03h-0.03h0.94   c2.16,0,3.45-1.09,3.45-2.77v-0.32c0-1.39-0.91-2.74-3.36-2.74c-1.96,0-3.13,0.65-3.8,1.97c-0.48,0.97-1,1.19-2.35,0.65   c-1.32-0.49-1.84-1.09-1.38-2.22c1.26-3.03,4.09-4.45,7.54-4.45c5.19,0,7.96,2.55,7.96,6.48v0.35c0,2.51-1.48,4.32-3.48,4.93   c2,0.58,3.77,2.32,3.77,5.03v0.48c0,4.38-3.9,7.09-8.25,7.09c-4.51,0-6.86-2.03-7.96-4.45c-0.52-1.35-0.06-2,1.13-2.55   c1.35-0.64,2.16-0.52,2.55,0.39c0.68,1.45,1.9,2.51,4.19,2.51c2.22,0,3.71-1.22,3.71-3.1v-0.13c0-2.16-1.45-3.35-3.71-3.35"></path>
	<path class="st0" d="M197.32,41.5c-1.39,0.55-1.9,0.38-2.42-0.48c-0.61-1.03-1.74-1.61-3.26-1.61c-2.57,0-4.12,1.42-4.12,4.52v1.25   l0.07,0.04c1.1-1,2.51-1.74,4.8-1.74c4.54,0,7.61,2.93,7.61,7.74v0.77c0,4.32-3.29,7.74-8.35,7.74c-5.8,0-8.76-3.38-8.76-8.35   v-7.51c0-4.77,3.16-8.51,8.76-8.51c4.45,0,6.38,2.13,7.16,3.81C199.36,40.34,198.74,41.05,197.32,41.5 M195.36,51.4   c0-2.51-1.42-4.19-3.77-4.19c-2.48,0-4.06,1.64-4.06,4.19v0.23c0,2.36,1.39,4,4.09,4c2.35,0,3.74-1.68,3.74-4V51.4z"></path>
	<path class="st0" d="M214.16,35.73c1.23,0,1.58,0.64,1.58,2.06c0,1.39-0.36,2.03-1.58,2.03h-8.15l-0.42,5.22l0.04,0.03   c0.74-0.68,2.06-1.61,4.64-1.61c3.84,0,6.74,2.42,6.74,7.48v0.84c0,5.38-3.61,7.93-8.32,7.93c-4.61,0-6.74-2.42-7.77-4.45   c-0.65-1.29-0.23-1.9,0.9-2.58c1.29-0.74,2.1-0.71,2.58,0.16c0.68,1.26,1.8,2.77,4.25,2.77c2.35,0,3.68-1.61,3.68-4.06V51.1   c0-2.48-1.26-3.9-3.71-3.9c-1.51,0-2.55,0.74-3.26,1.48c-0.64,0.68-1.29,0.83-2.68,0.26c-0.94-0.39-1.48-0.77-1.39-1.9l0.64-9.02   c0.13-1.81,0.91-2.29,2.94-2.29"></path>
	<path class="st1" d="M99.68,6.75c-0.45-0.67-1.27-0.97-2.5-0.93C96.4,5.85,95.62,6,95,6.12c-0.25,0.05-0.59,0.12-0.7,0.12   c-0.23-0.04-0.51-0.02-0.88,0.1c-0.54,0.16-1.1,0.46-1.1,0.46l-13.35,7.46l-12.28-0.61l-0.24,0.05l-2.07,0.93   c-0.18,0.08-0.3,0.26-0.31,0.46c-0.01,0.2,0.1,0.39,0.27,0.49l6.38,3.62l-6.87,4.03l-1.54,0.78l-1.03,0.16l-9.16-2.89   c-0.24-0.07-0.53-0.04-0.98,0.09c-0.43,0.13-0.93,0.34-1.33,0.51c-0.21,0.09-0.43,0.18-0.51,0.2c-0.17,0.05-0.31,0.18-0.38,0.35   c-0.05,0.13-0.17,0.42,0.35,1.34l0.17,0.19L61,31.55c0.14,0.09,0.32,0.11,0.48,0.05c0.22-0.09,5.47-2.05,7.41-3   c1.16-0.57,3.74-2.14,5.26-3.08l-0.84,7.6c-0.02,0.2,0.07,0.39,0.23,0.5c0.1,0.07,0.21,0.1,0.32,0.1L74,33.69l0.09-0.04l2.62-1.34   l0.23-0.22l6.4-11.86c1.04-0.67,6.1-3.91,7.83-4.9c1.21-0.69,4.09-2.58,5.32-3.39l0.01-0.01c0.29-0.2,0.55-0.36,0.58-0.38   c0.02-0.01,2.46-1.76,2.83-3.44C100.03,7.6,99.94,7.13,99.68,6.75"></path>
</g>
</svg>
